<?xml version="1.0" encoding="utf-8"?>
<!-- Generator: Adobe Illustrator 25.4.1, SVG Export Plug-In . SVG Version: 6.00 Build 0)  -->
<svg version="1.1" id="Capa_1" xmlns="http://www.w3.org/2000/svg" xmlns:xlink="http://www.w3.org/1999/xlink" x="0px" y="0px"
	 viewBox="0 0 29.8 33.8" style="enable-background:new 0 0 29.8 33.8;" xml:space="preserve">
<style type="text/css">
	.st0{fill:#FFFFFF;}
</style>
<g>
	<path class="st0" d="M20.6,3.2H10.3c-1.5,0-2.7,1.2-2.7,2.7v0.3H5.7C4.3,6.2,3,7.5,3,8.9v16.2c0,1.5,1.2,2.7,2.7,2.7h10.4
		c1.5,0,2.7-1.2,2.7-2.7v-0.3h1.9c1.5,0,2.7-1.2,2.7-2.7V5.9C23.4,4.4,22.1,3.2,20.6,3.2z M17.1,25.1c0,0.5-0.5,0.9-0.9,0.9H5.8
		c-0.5,0-0.9-0.5-0.9-0.9V8.9C4.9,8.4,5.4,8,5.8,8h10.3C16.6,8,17,8.5,17,8.9L17.1,25.1L17.1,25.1z M21.6,22c0,0.5-0.5,0.9-0.9,0.9
		h-1.9v-14c0-1.5-1.2-2.7-2.7-2.7H9.4V5.9C9.4,5.4,9.8,5,10.3,5h10.3c0.5,0,0.9,0.5,0.9,0.9L21.6,22L21.6,22z"/>
</g>
</svg>
