<?xml version="1.0" encoding="iso-8859-1"?>
<!-- Generator: Adobe Illustrator 19.0.0, SVG Export Plug-In . SVG Version: 6.00 Build 0)  -->
<svg version="1.1" id="Layer_1" xmlns="http://www.w3.org/2000/svg" xmlns:xlink="http://www.w3.org/1999/xlink" x="0px" y="0px"
	 viewBox="0 0 329.991 329.991" style="enable-background:new 0 0 329.991 329.991;" xml:space="preserve">
<path id="XMLID_462_" d="M179.996,151.501V62.571c17.458,6.192,30,22.865,30,42.42c0,8.284,6.716,15,15,15c8.284,0,15-6.716,15-15
	c0-36.219-25.808-66.523-60-73.491V15c0-8.284-6.716-15-15-15c-8.284,0-15,6.716-15,15v16.5c-34.192,6.968-60,37.272-60,73.491
	s25.808,66.522,60,73.491v88.929c-17.459-6.192-30-22.865-30-42.42c0-8.284-6.716-15-15-15s-15,6.716-15,15
	c0,36.219,25.808,66.523,60,73.491v16.509c0,8.284,6.716,15,15,15c8.284,0,15-6.716,15-15v-16.509c34.192-6.968,60-37.272,60-73.491
	S214.187,158.469,179.996,151.501z M119.996,104.991c0-19.555,12.541-36.228,30-42.42v84.84
	C132.537,141.219,119.996,124.546,119.996,104.991z M179.996,267.411v-84.84c17.458,6.192,30,22.865,30,42.42
	S197.454,261.219,179.996,267.411z" fill="#686868"/>
<g>
</g>
<g>
</g>
<g>
</g>
<g>
</g>
<g>
</g>
<g>
</g>
<g>
</g>
<g>
</g>
<g>
</g>
<g>
</g>
<g>
</g>
<g>
</g>
<g>
</g>
<g>
</g>
<g>
</g>
</svg>
