<svg xmlns="http://www.w3.org/2000/svg" viewBox="0 0 32 32">
  <path d="M15.5 2.09375L14.09375 3.5L16.59375 6.03125C16.394531 6.019531 16.203125 6 16 6C10.5 6 6 10.5 6 16C6 17.5 6.304688 18.894531 6.90625 20.09375L8.40625 18.59375C8.207031 17.792969 8 16.898438 8 16C8 11.601563 11.601563 8 16 8C16.175781 8 16.359375 8.019531 16.53125 8.03125L14.09375 10.5L15.5 11.90625L19.71875 7.71875L20.40625 7L19.71875 6.28125 Z M 25.09375 11.90625L23.59375 13.40625C23.894531 14.207031 24 15.101563 24 16C24 20.398438 20.398438 24 16 24C15.824219 24 15.640625 23.980469 15.46875 23.96875L17.90625 21.5L16.5 20.09375L12.28125 24.28125L11.59375 25L12.28125 25.71875L16.5 29.90625L17.90625 28.5L15.40625 25.96875C15.601563 25.980469 15.804688 26 16 26C21.5 26 26 21.5 26 16C26 14.5 25.695313 13.105469 25.09375 11.90625Z" fill="#686868" />
</svg>