<svg xmlns="http://www.w3.org/2000/svg" viewBox="0 0 32 32">
  <path d="M16 4C12.144531 4 9 7.144531 9 11C9 13.394531 10.21875 15.519531 12.0625 16.78125C8.484375 18.304688 6 21.859375 6 26L8 26C8 21.535156 11.535156 18 16 18C20.464844 18 24 21.535156 24 26L26 26C26 21.859375 23.515625 18.304688 19.9375 16.78125C21.78125 15.519531 23 13.394531 23 11C23 7.144531 19.855469 4 16 4 Z M 16 6C18.773438 6 21 8.226563 21 11C21 13.773438 18.773438 16 16 16C13.226563 16 11 13.773438 11 11C11 8.226563 13.226563 6 16 6Z" fill="#686868" />
</svg>